<svg xmlns="http://www.w3.org/2000/svg" width="26.878" height="21.503" viewBox="0 0 26.878 21.503">
  <path id="card" d="M684.878,345.115a.962.962,0,0,1-.974.947,1.689,1.689,0,1,0,0,3.376.981.981,0,0,1,.688.278.927.927,0,0,1,.286.669v3.18a5.018,5.018,0,0,1-5.087,4.938h-16.7A5.018,5.018,0,0,1,658,353.565l0-3.282a.933.933,0,0,1,.286-.671.988.988,0,0,1,.688-.277,1.63,1.63,0,0,0,1.739-1.584,1.716,1.716,0,0,0-1.739-1.689.962.962,0,0,1-.974-.947v-3.177A5.019,5.019,0,0,1,663.085,337h1.648a.947.947,0,1,1,0,1.894h-1.648a3.094,3.094,0,0,0-3.135,3.044V344.3a3.606,3.606,0,0,1,2.713,3.455,3.475,3.475,0,0,1-2.712,3.36v2.454a3.094,3.094,0,0,0,3.135,3.044h9.731V355a.975.975,0,0,1,1.95,0v1.609h5.021a3.1,3.1,0,0,0,3.137-3.044V351.2a3.555,3.555,0,0,1,0-6.908v-2.359a3.094,3.094,0,0,0-3.135-3.044h-5.023V341a.975.975,0,0,1-1.95,0v-2.109h-2.638a.947.947,0,1,1,0-1.894h9.612a5.019,5.019,0,0,1,5.085,4.938Zm-10.109,5.55a.975.975,0,0,1-1.95,0v-5.049a.975.975,0,0,1,1.95,0Z" transform="translate(-658 -337)" fill="#130f26" fill-rule="evenodd"/>
</svg>
