<svg xmlns="http://www.w3.org/2000/svg" width="16.982" height="18.869" viewBox="0 0 16.982 18.869">
  <path id="date" d="M223.691,279.693v.976c2.839.276,4.291,1.844,4.291,4.664v7.8c0,3.138-1.789,4.731-5.308,4.731h-6.366c-3.519,0-5.308-1.593-5.308-4.731v-7.8a4.283,4.283,0,0,1,1.953-4,.646.646,0,0,1,.691-.025.672.672,0,0,1-.068,1.193,2.965,2.965,0,0,0-1.279,2.837v.251h11.969a.659.659,0,0,1,0,1.318H212.3v6.234c0,2.394,1.165,3.388,4.011,3.4h6.366c2.806,0,4-1.019,4-3.413v-7.8c0-2.087-.91-3.1-2.986-3.338v.634a.655.655,0,0,1-1.3-.05v-2.938a.661.661,0,0,1,.209-.462.642.642,0,0,1,.471-.172A.671.671,0,0,1,223.691,279.693Zm-7.3,3.357a.642.642,0,0,1-.464.19.653.653,0,0,1-.631-.667v-2.879a.655.655,0,0,1,1.3,0v.909H220.3a.66.66,0,0,1,0,1.319h-3.725v.659A.67.67,0,0,1,216.386,283.05Zm7.059,5.964a.835.835,0,1,0,.821.835.843.843,0,0,0-.243-.593.814.814,0,0,0-.585-.242Zm-4.758.835a.82.82,0,1,1,.82.834A.827.827,0,0,1,218.687,289.849Zm-3.11-.835a.835.835,0,1,0,.821.835.843.843,0,0,0-.243-.593.815.815,0,0,0-.586-.242Zm7.047,4.214a.827.827,0,0,1,.82-.834h-.008a.81.81,0,0,1,.585.241.844.844,0,0,1,.243.593.82.82,0,1,1-1.641,0Zm-3.118-.834a.835.835,0,1,0,.821.834A.827.827,0,0,0,219.507,292.395Zm-4.749.834a.827.827,0,0,1,.82-.834h-.008a.81.81,0,0,1,.586.241.844.844,0,0,1,.243.593.82.82,0,1,1-1.641,0Z" transform="translate(-211 -279)" fill="#087bd4" fill-rule="evenodd"/>
</svg>
