<svg xmlns="http://www.w3.org/2000/svg" width="24.704" height="20.895" viewBox="0 0 24.704 20.895">
  <g id="from" transform="translate(-70.25 -183.105)">
    <g id="Group_9" data-name="Group 9" transform="translate(-1568 -152.86)">
      <path id="Union_1" data-name="Union 1" d="M11.767,16.661a.861.861,0,0,1-.761-.477L8.519,11.21l-1.655.828a2.586,2.586,0,0,1-2.833-.344L.3,8.515a.862.862,0,0,1,.251-1.46L2.6,6.271a2.585,2.585,0,0,1,1.711-.049l1.884.6a.863.863,0,0,0,.652-.053l.46-.233L4.7,1.854A.862.862,0,0,1,5.667.6l8.938,2.234L19.638.28A2.568,2.568,0,0,1,20.807,0h3.034a.862.862,0,0,1,.771,1.246l-.892,1.785a2.574,2.574,0,0,1-1.156,1.156L17.58,6.68,12.539,16.2a.864.864,0,0,1-.763.458Zm.032-2.745,4.387-8.287v0L16.2,5.6h0a.852.852,0,0,1,.308-.311h0l.019-.011.008,0,.012-.006.014-.007,5.229-2.614a.858.858,0,0,0,.387-.387l.268-.536h-1.64l-1.7.756L7.627,8.308a2.584,2.584,0,0,1-1.955.158l-1.884-.6a.862.862,0,0,0-.57.017l-.692.266,2.624,2.236a.862.862,0,0,0,.944.115l4.725-2.363a.862.862,0,1,1,.769,1.543l-1.526.763ZM8.845,5.758l3.414-1.733L7.176,2.754ZM20.417,1.817l-1.306.663,1.7-.756A.874.874,0,0,0,20.417,1.817Z" transform="translate(1638.25 335.965)"/>
    </g>
    <rect id="Rectangle_13" data-name="Rectangle 13" width="17" height="3" rx="1.5" transform="translate(72 201)"/>
  </g>
</svg>
