<svg xmlns="http://www.w3.org/2000/svg" width="21.5" height="22.631" viewBox="0 0 21.5 22.631">
  <path id="home" d="M442.008,244.243v-3.459a1.605,1.605,0,0,1,1.61-1.6h3.253a1.617,1.617,0,0,1,1.138.468,1.6,1.6,0,0,1,.472,1.132v3.459a1.375,1.375,0,0,0,.4.981,1.4,1.4,0,0,0,.986.407h2.219a3.915,3.915,0,0,0,2.764-1.13A3.856,3.856,0,0,0,456,241.759V231.9a2.8,2.8,0,0,0-1.013-2.152l-7.549-5.985a3.507,3.507,0,0,0-4.469.08l-7.376,5.9A2.8,2.8,0,0,0,434.5,231.9v9.847a3.9,3.9,0,0,0,3.911,3.882h2.168a1.394,1.394,0,0,0,1.4-1.378Z" transform="translate(-434.5 -223)" fill="#087bd4"/>
</svg>
