<svg xmlns="http://www.w3.org/2000/svg" width="57.44" height="41.719" viewBox="0 0 57.44 41.719">
  <g id="M" transform="translate(-189.145 -637.281)">
    <rect id="Rectangle_19" data-name="Rectangle 19" width="17" height="3" rx="1.5" transform="translate(204.5 676)"/>
    <path id="Union_3" data-name="Union 3" d="M12.733,1.23V6.15a1.252,1.252,0,0,0,1.273,1.23,15.977,15.977,0,0,0,5.25-.8,6,6,0,0,0,1.852-1.014A2.489,2.489,0,0,0,22.07,3.69a2.492,2.492,0,0,0-.963-1.877A6,6,0,0,0,19.255.8a15.977,15.977,0,0,0-5.25-.8A1.252,1.252,0,0,0,12.733,1.23Zm2.546,1.277a11.908,11.908,0,0,1,3.082.6,3.483,3.483,0,0,1,1.057.551c.015.012.029.025.043.037l-.043.038a3.522,3.522,0,0,1-1.057.549,11.908,11.908,0,0,1-3.082.6Zm10.187.773a1.231,1.231,0,1,0,0,2.46h2.443l4.244,4.1H7.215a1.306,1.306,0,0,1-.764-.246L3.677,7.584l3.5-1.711a1.316,1.316,0,0,1,.576-.133H8.913a1.231,1.231,0,1,0,0-2.46H7.752a3.954,3.954,0,0,0-1.725.4L.7,6.283a1.227,1.227,0,0,0-.692.989,1.213,1.213,0,0,0,.5,1.092l4.414,3.2a3.905,3.905,0,0,0,2.292.738h9.067l7.177,3.082,4.926,4.759a1.3,1.3,0,0,0,.9.36h2.547a1.29,1.29,0,0,0,1.022-.5,1.2,1.2,0,0,0,.2-1.088L31,12.3h4.231a1.275,1.275,0,0,0,1.176-.759,1.2,1.2,0,0,0-.277-1.34L29.335,3.641a1.286,1.286,0,0,0-.9-.362Zm2.872,9.02,1.783,5.74h-.307L25.092,13.48a1.285,1.285,0,0,0-.382-.254L22.551,12.3Z" transform="translate(237.872 663.574) rotate(155)" fill="#1c1b1f"/>
    <path id="Path_12963" data-name="Path 12963" d="M656.448,673.777a31.7,31.7,0,0,1,1.078-17.827,25.141,25.141,0,0,1,23.8-16.169c12.989,0,20.85,7.685,24.294,16.169s2.073,17.827,2.073,17.827" transform="translate(-464)" fill="none" stroke="#53bdac" stroke-linecap="round" stroke-width="5"/>
  </g>
</svg>
