<svg xmlns="http://www.w3.org/2000/svg" width="26.506" height="26.506" viewBox="0 0 26.506 26.506">
  <path id="map" d="M98.32,345.36A13.241,13.241,0,0,1,111.248,335a12.793,12.793,0,0,1,2.883.326,13.23,13.23,0,0,1,10.041,15.883,1.034,1.034,0,1,1-2-.513,11.134,11.134,0,1,0-2.069,4.4,1.035,1.035,0,0,1,1.6,1.268,13.238,13.238,0,0,1-23.387-11Zm13.108,6.1a1.038,1.038,0,0,1,.4-1.332l.779-.384,1.3-4.165-4.067,1.28-1.859,5.945a1.024,1.024,0,1,1-1.952-.616l2.022-6.469a1.036,1.036,0,0,1,.673-.664l6.462-2.024a.893.893,0,0,1,.6,0,1.011,1.011,0,0,1,.673,1.279L114.4,350.79a1.021,1.021,0,0,1-.522.616l-1.162.582A1.035,1.035,0,0,1,111.428,351.458Z" transform="translate(-98 -335)" fill="#fff" fill-rule="evenodd"/>
</svg>
