<svg xmlns="http://www.w3.org/2000/svg" width="22.514" height="26.487" viewBox="0 0 22.514 26.487">
  <path id="notification" d="M513.121,235.328a5.37,5.37,0,0,1,.893,2.715l-.036.245a5.478,5.478,0,0,1-1.245,3.647,6.469,6.469,0,0,1-4.136,2.039,53.782,53.782,0,0,1-11.749,0,6.4,6.4,0,0,1-4.066-2.039,5.41,5.41,0,0,1-1.281-3.623v-.163a5.56,5.56,0,0,1,.964-2.785l.094-.117a5.091,5.091,0,0,0,1.175-2.331v-2.4a1.013,1.013,0,0,1,1.939.211v2.4a.7.7,0,0,1,0,.128,6.966,6.966,0,0,1-1.622,3.239,3.361,3.361,0,0,0-.516,1.655v.256a3.4,3.4,0,0,0,.776,2.273,4.391,4.391,0,0,0,2.749,1.3,53,53,0,0,0,11.373,0,4.4,4.4,0,0,0,2.808-1.363,3.371,3.371,0,0,0,.74-2.2v-.268a3.475,3.475,0,0,0-.5-1.667,6.979,6.979,0,0,1-1.716-3.239.7.7,0,0,1,0-.128V230.7c-.34-3.519-3.876-5.7-6.955-5.7a7.631,7.631,0,0,0-3.736.968,1.018,1.018,0,0,1-1.029.007,1,1,0,0,1,.042-1.755A9.6,9.6,0,0,1,502.711,223c4.066,0,8.624,2.867,9.142,7.469v2.4a4.961,4.961,0,0,0,1.175,2.33A1.1,1.1,0,0,1,513.121,235.328Zm-10.03,12.081a2.629,2.629,0,0,0,1.723-1.033h.012a1.021,1.021,0,0,1,1.428-.135,1,1,0,0,1,.135,1.417,4.624,4.624,0,0,1-7.367,0,1,1,0,0,1,.135-1.417,1.02,1.02,0,0,1,1.428.135,2.737,2.737,0,0,0,.552.547A2.644,2.644,0,0,0,503.091,247.409Z" transform="translate(-491.5 -223)" fill="#130f26" fill-rule="evenodd"/>
</svg>
