<svg xmlns="http://www.w3.org/2000/svg" width="17.5" height="25" viewBox="0 0 17.5 25">
  <path id="req" d="M-454.07,16.982l-3.846-4.606a1.335,1.335,0,0,1-.173-1.462,1.448,1.448,0,0,1,1.3-.783h14.9v-2.3a1.414,1.414,0,0,1,1.443-1.381A1.413,1.413,0,0,1-439,7.829v3.684a1.414,1.414,0,0,1-1.442,1.383h-13.347l1.973,2.359a1.345,1.345,0,0,1-.225,1.943,1.481,1.481,0,0,1-.9.3A1.466,1.466,0,0,1-454.07,16.982ZM-464,9.671V5.987a1.414,1.414,0,0,1,1.443-1.381h13.346l-1.973-2.361A1.345,1.345,0,0,1-450.959.3a1.487,1.487,0,0,1,2.028.217l3.846,4.606a1.332,1.332,0,0,1,.173,1.461,1.448,1.448,0,0,1-1.3.783h-14.9v2.3a1.414,1.414,0,0,1-1.442,1.383A1.415,1.415,0,0,1-464,9.671Z" transform="translate(17.5 464) rotate(90)" fill="#1c1b1f"/>
</svg>
