<svg xmlns="http://www.w3.org/2000/svg" width="25.143" height="25.143" viewBox="0 0 25.143 25.143">
  <path id="search" d="M122.836,246.392l-4.322-4.225-.1-.155a1.018,1.018,0,0,0-1.429,0,10.2,10.2,0,0,1-13.224.429,9.654,9.654,0,0,1-2.145-12.765,10.152,10.152,0,0,1,12.668-3.731,9.732,9.732,0,0,1,5.423,11.8.978.978,0,0,0,.229.969,1.03,1.03,0,0,0,.973.292,1.009,1.009,0,0,0,.745-.679,11.736,11.736,0,0,0-6.286-14.143,12.263,12.263,0,0,0-15.245,3.953,11.637,11.637,0,0,0,1.71,15.331,12.307,12.307,0,0,0,15.758.647l3.827,3.741a1.03,1.03,0,0,0,1.428,0,.984.984,0,0,0,0-1.409Z" transform="translate(-98 -223)" fill="#130f26"/>
</svg>
