<svg xmlns="http://www.w3.org/2000/svg" width="17.702" height="17.702" viewBox="0 0 17.702 17.702">
  <path id="time" d="M1009.489,223.068a1.716,1.716,0,0,1,1.708.448,1.746,1.746,0,0,1,.434,1.723l-1.106,3.719a.665.665,0,1,1-1.275-.382l1.106-3.72a.391.391,0,0,0-.1-.4.4.4,0,0,0-.4-.1l-14.242,4.141a.4.4,0,0,0-.1.733l3,1.844a.671.671,0,0,1,.219.92.663.663,0,0,1-.566.319.65.65,0,0,1-.345-.1l-3-1.845a1.744,1.744,0,0,1,.422-3.157Zm-1.3,9.092a.661.661,0,0,1,.823-.449.669.669,0,0,1,.451.832l-2.062,6.916a1.7,1.7,0,0,1-1.434,1.228,1.675,1.675,0,0,1-.23.015,1.7,1.7,0,0,1-1.469-.837l-3.629-6.01a.675.675,0,0,1,.1-.819l5.151-5.186a.666.666,0,0,1,.938.945l-4.78,4.815,3.355,5.56a.406.406,0,0,0,.735-.094Z" transform="translate(-994 -223)" fill="#087bd4" fill-rule="evenodd"/>
</svg>
