<svg xmlns="http://www.w3.org/2000/svg" width="28.5" height="22.535" viewBox="0 0 28.5 22.535">
  <g id="to" transform="translate(-68.25 -268.465)">
    <rect id="Rectangle_14" data-name="Rectangle 14" width="17" height="3" rx="1.5" transform="translate(72 288)"/>
    <path id="Union_2" data-name="Union 2" d="M9.942.99V4.95a.992.992,0,0,0,.994.99,12.135,12.135,0,0,0,4.1-.643,4.647,4.647,0,0,0,1.446-.816,2.023,2.023,0,0,0,.752-1.511,2.025,2.025,0,0,0-.752-1.511A4.647,4.647,0,0,0,15.035.643,12.135,12.135,0,0,0,10.936,0,.992.992,0,0,0,9.942.99ZM11.93,2.017a9.054,9.054,0,0,1,2.406.48,2.694,2.694,0,0,1,.826.443c.012.01.023.02.033.03L15.161,3a2.724,2.724,0,0,1-.826.442,9.054,9.054,0,0,1-2.406.48Zm7.954.623a.99.99,0,1,0,0,1.98h1.908l3.314,3.3H5.634a1,1,0,0,1-.6-.2L2.871,6.1,5.6,4.727a1,1,0,0,1,.45-.107h.907a.99.99,0,1,0,0-1.98H6.053a3.011,3.011,0,0,0-1.347.32L.544,5.057A.988.988,0,0,0,.4,6.732L3.844,9.306a2.988,2.988,0,0,0,1.79.594h7.079l5.6,2.481,3.846,3.83a1,1,0,0,0,.7.29h1.989a.99.99,0,0,0,.952-1.275L24.2,9.9h3.3a.989.989,0,0,0,.7-1.689l-5.3-5.279a.989.989,0,0,0-.7-.291ZM22.126,9.9l1.392,4.62h-.24l-3.686-3.67a1,1,0,0,0-.3-.2L17.608,9.9Z" transform="translate(96.75 284.965) rotate(180)" fill="#1c1b1f"/>
  </g>
</svg>
